<?xml version="1.0" encoding="UTF-8" standalone="no"?>
<!DOCTYPE svg PUBLIC "-//W3C//DTD SVG 1.1//EN" "http://www.w3.org/Graphics/SVG/1.1/DTD/svg11.dtd">
<svg xmlns="http://www.w3.org/2000/svg" version="1.1" xmlns:dc="http://purl.org/dc/elements/1.1/" xmlns:xl="http://www.w3.org/1999/xlink" viewBox="-5 -10 840 420" width="840" height="420">
  <defs>
    <clipPath id="artboard_clip_path">
      <path d="M -5 -10 L 835 -10 L 835 410 L -5 410 Z"/>
    </clipPath>
    <marker orient="auto" overflow="visible" markerUnits="strokeWidth" id="UMLInheritance_Marker" stroke-linejoin="miter" stroke-miterlimit="10" viewBox="-6 -4 7 8" markerWidth="7" markerHeight="8" color="#666a6b">
      <g>
        <path d="M -4.32 0 L 0 2.52 L 0 -2.52 Z" fill="none" stroke="currentColor" stroke-width="1"/>
      </g>
    </marker>
  </defs>
  <g id="UpdateGroupCapacityForecast_(in)" stroke-dasharray="none" fill-opacity="1" stroke-opacity="1" fill="none" stroke="none">
    <title>UpdateGroupCapacityForecast (in)</title>
    <rect fill="white" x="-5" y="-10" width="840" height="420"/>
    <g id="UpdateGroupCapacityForecast_(in)_Layer_1" clip-path="url(#artboard_clip_path)">
      <title>Layer 1</title>
      <g id="Graphic_2">
        <title>entity</title>
        <rect x="15" y="0" width="100" height="100" fill="#f1f8f8"/>
        <rect x="15" y="0" width="100" height="100" stroke="#b9c0c1" stroke-linecap="round" stroke-linejoin="round" stroke-width="2"/>
        <text transform="translate(21 32)" fill="#515556">
          <tspan font-family="Avenir" font-size="13" fill="#515556" x="18.5915" y="13">Capacity </tspan>
          <tspan font-family="Avenir" font-size="13" fill="#515556" x="19.547" y="31">Provider</tspan>
        </text>
      </g>
      <g id="Line_6">
        <title>line</title>
        <line x1="258.86" y1="50" x2="115" y2="50" marker-start="url(#UMLInheritance_Marker)" stroke="#666a6b" stroke-linecap="square" stroke-linejoin="bevel" stroke-width="2"/>
      </g>
      <g id="Graphic_7">
        <text transform="translate(147.39148 37.26018)" fill="black">
          <tspan font-family="Helvetica Now Micro" font-size="6" fill="black" x="8171241e-19" y="7">OAuth token, forecast</tspan>
        </text>
      </g>
      <g id="Group_8">
        <title>process</title>
        <g id="Graphic_10">
          <path d="M 270 30 L 270 10 C 270 10 270 0 280 0 C 290 0 360 0 360 0 C 360 0 370 0 370 10 C 370 20 370 30 370 30 Z" fill="#f1f8f8"/>
          <path d="M 270 30 L 270 10 C 270 10 270 0 280 0 C 290 0 360 0 360 0 C 360 0 370 0 370 10 C 370 20 370 30 370 30 Z" stroke="#babfc1" stroke-linecap="round" stroke-linejoin="round" stroke-width="2"/>
          <text transform="translate(275 7.5)" fill="#515556">
            <tspan font-family="Avenir" font-size="11" fill="#515556" x="41.942" y="11">1</tspan>
          </text>
        </g>
        <g id="Graphic_9">
          <path d="M 270 30 L 270 90 C 270 90 270 100 280 100 C 290 100 360 100 360 100 C 360 100 370 100 370 90 C 370 80 370 30 370 30 Z" fill="#f1f8f8"/>
          <path d="M 270 30 L 270 90 C 270 90 270 100 280 100 C 290 100 360 100 360 100 C 360 100 370 100 370 90 C 370 80 370 30 370 30 Z" stroke="#babfc1" stroke-linecap="round" stroke-linejoin="round" stroke-width="2"/>
          <text transform="translate(275 45)" fill="#515556">
            <tspan font-family="Avenir" font-size="13" fill="#515556" x="22.8285" y="13">Process </tspan>
            <tspan font-family="Avenir" font-size="13" fill="#515556" x="21.743" y="35">forecast</tspan>
          </text>
        </g>
      </g>
      <g id="Line_12">
        <title>line</title>
        <line x1="478.86" y1="50" x2="370" y2="50" marker-start="url(#UMLInheritance_Marker)" stroke="#666a6b" stroke-linecap="square" stroke-linejoin="bevel" stroke-width="2"/>
      </g>
      <g id="Graphic_11">
        <text transform="translate(402.9701 37.26018)" fill="black">
          <tspan font-family="Helvetica Now Micro" font-size="6" fill="black" x="52935434e-20" y="7">OAuth token</tspan>
        </text>
      </g>
      <g id="Group_13">
        <title>process</title>
        <g id="Graphic_15">
          <path d="M 490 30 L 490 10 C 490 10 490 0 500 0 C 510 0 580 0 580 0 C 580 0 590 0 590 10 C 590 20 590 30 590 30 Z" fill="#f1f8f8"/>
          <path d="M 490 30 L 490 10 C 490 10 490 0 500 0 C 510 0 580 0 580 0 C 580 0 590 0 590 10 C 590 20 590 30 590 30 Z" stroke="#babfc1" stroke-linecap="round" stroke-linejoin="round" stroke-width="2"/>
          <text transform="translate(495 7.5)" fill="#515556">
            <tspan font-family="Avenir" font-size="11" fill="#515556" x="41.942" y="11">2</tspan>
          </text>
        </g>
        <g id="Graphic_14">
          <path d="M 490 30 L 490 90 C 490 90 490 100 500 100 C 510 100 580 100 580 100 C 580 100 590 100 590 90 C 590 80 590 30 590 30 Z" fill="#f1f8f8"/>
          <path d="M 490 30 L 490 90 C 490 90 490 100 500 100 C 510 100 580 100 580 100 C 580 100 590 100 590 90 C 590 80 590 30 590 30 Z" stroke="#babfc1" stroke-linecap="round" stroke-linejoin="round" stroke-width="2"/>
          <text transform="translate(495 56)" fill="#515556">
            <tspan font-family="Avenir" font-size="13" fill="#515556" x="7.4105" y="13">Authenticate</tspan>
          </text>
        </g>
      </g>
      <g id="Group_16">
        <title>data</title>
        <g id="Graphic_18">
          <title>Attributes</title>
          <rect x="705" y="35" width="115" height="30" fill="#eff9f9"/>
          <rect x="705" y="35" width="115" height="30" stroke="#b9c0c1" stroke-linecap="round" stroke-linejoin="round" stroke-width="2"/>
          <text transform="translate(713 41)" fill="#515556">
            <tspan font-family="Avenir" font-size="13" fill="#515556" x="0" y="13">Identities</tspan>
          </text>
        </g>
        <g id="Graphic_17">
          <path d="M 680 35 C 680 35 675 35 675 40 C 675 45 675 60 675 60 C 675 60 675 65 680 65 C 685 65 705 65 705 65 L 705 35 Z" fill="#f1f8f8"/>
          <path d="M 680 35 C 680 35 675 35 675 40 C 675 45 675 60 675 60 C 675 60 675 65 680 65 C 685 65 705 65 705 65 L 705 35 Z" stroke="#b9bfc1" stroke-linecap="round" stroke-linejoin="round" stroke-width="2"/>
          <text transform="translate(680 42.5)" fill="#515556">
            <tspan font-family="Avenir" font-size="11" fill="#515556" x="6.942" y="11">1</tspan>
          </text>
        </g>
      </g>
      <g id="Line_20">
        <title>line</title>
        <line x1="601.14" y1="50" x2="675" y2="50" marker-start="url(#UMLInheritance_Marker)" stroke="#666a6b" stroke-linecap="square" stroke-linejoin="bevel" stroke-width="2"/>
      </g>
      <g id="Graphic_19">
        <text transform="translate(608.7033 37.26018)" fill="black">
          <tspan font-family="Helvetica Now Micro" font-size="6" fill="black" x="0" y="7">OAuth public key</tspan>
        </text>
      </g>
      <g id="Group_21">
        <title>data</title>
        <g id="Graphic_23">
          <title>Attributes</title>
          <rect x="525" y="175" width="140" height="30" fill="#eff9f9"/>
          <rect x="525" y="175" width="140" height="30" stroke="#b9c0c1" stroke-linecap="round" stroke-linejoin="round" stroke-width="2"/>
          <text transform="translate(533 181)" fill="#515556">
            <tspan font-family="Avenir" font-size="13" fill="#515556" x="0" y="13">Capacity groups</tspan>
          </text>
        </g>
        <g id="Graphic_22">
          <path d="M 500 175 C 500 175 495 175 495 180 C 495 185 495 200 495 200 C 495 200 495 205 500 205 C 505 205 525 205 525 205 L 525 175 Z" fill="#f1f8f8"/>
          <path d="M 500 175 C 500 175 495 175 495 180 C 495 185 495 200 495 200 C 495 200 495 205 500 205 C 505 205 525 205 525 205 L 525 175 Z" stroke="#b9bfc1" stroke-linecap="round" stroke-linejoin="round" stroke-width="2"/>
          <text transform="translate(500 182.5)" fill="#515556">
            <tspan font-family="Avenir" font-size="11" fill="#515556" x="6.942" y="11">2</tspan>
          </text>
        </g>
      </g>
      <g id="Group_24">
        <title>process</title>
        <g id="Graphic_26">
          <path d="M 270 180 L 270 160 C 270 160 270 150 280 150 C 290 150 360 150 360 150 C 360 150 370 150 370 160 C 370 170 370 180 370 180 Z" fill="#f1f8f8"/>
          <path d="M 270 180 L 270 160 C 270 160 270 150 280 150 C 290 150 360 150 360 150 C 360 150 370 150 370 160 C 370 170 370 180 370 180 Z" stroke="#babfc1" stroke-linecap="round" stroke-linejoin="round" stroke-width="2"/>
          <text transform="translate(275 157.5)" fill="#515556">
            <tspan font-family="Avenir" font-size="11" fill="#515556" x="41.942" y="11">3</tspan>
          </text>
        </g>
        <g id="Graphic_25">
          <path d="M 270 180 L 270 240 C 270 240 270 250 280 250 C 290 250 360 250 360 250 C 360 250 370 250 370 240 C 370 230 370 180 370 180 Z" fill="#f1f8f8"/>
          <path d="M 270 180 L 270 240 C 270 240 270 250 280 250 C 290 250 360 250 360 250 C 360 250 370 250 370 240 C 370 230 370 180 370 180 Z" stroke="#babfc1" stroke-linecap="round" stroke-linejoin="round" stroke-width="2"/>
          <text transform="translate(275 195)" fill="#515556">
            <tspan font-family="Avenir" font-size="13" fill="#515556" x="24.0505" y="13">Publish </tspan>
            <tspan font-family="Avenir" font-size="13" fill="#515556" x="21.743" y="35">forecast</tspan>
          </text>
        </g>
      </g>
      <g id="Group_30">
        <title>data</title>
        <g id="Graphic_32">
          <title>Attributes</title>
          <rect x="525" y="210" width="140" height="30" fill="#eff9f9"/>
          <rect x="525" y="210" width="140" height="30" stroke="#b9c0c1" stroke-linecap="round" stroke-linejoin="round" stroke-width="2"/>
          <text transform="translate(533 216)" fill="#515556">
            <tspan font-family="Avenir" font-size="13" fill="#515556" x="0" y="13">Capacity optimizers</tspan>
          </text>
        </g>
        <g id="Graphic_31">
          <path d="M 500 210 C 500 210 495 210 495 215 C 495 220 495 235 495 235 C 495 235 495 240 500 240 C 505 240 525 240 525 240 L 525 210 Z" fill="#f1f8f8"/>
          <path d="M 500 210 C 500 210 495 210 495 215 C 495 220 495 235 495 235 C 495 235 495 240 500 240 C 505 240 525 240 525 240 L 525 210 Z" stroke="#b9bfc1" stroke-linecap="round" stroke-linejoin="round" stroke-width="2"/>
          <text transform="translate(500 217.5)" fill="#515556">
            <tspan font-family="Avenir" font-size="11" fill="#515556" x="6.942" y="11">3</tspan>
          </text>
        </g>
      </g>
      <g id="Line_33">
        <title>line</title>
        <line x1="320" y1="138.86" x2="320" y2="100" marker-start="url(#UMLInheritance_Marker)" stroke="#666a6b" stroke-linecap="square" stroke-linejoin="bevel" stroke-width="2"/>
      </g>
      <g id="Graphic_34">
        <text transform="translate(325.86165 119.00889)" fill="black">
          <tspan font-family="Helvetica Now Micro" font-size="6" fill="black" x="0" y="7">forecast</tspan>
        </text>
      </g>
      <g id="Line_36">
        <title>line</title>
        <line x1="381.14" y1="190" x2="495" y2="190" marker-start="url(#UMLInheritance_Marker)" stroke="#666a6b" stroke-linecap="square" stroke-linejoin="bevel" stroke-width="2"/>
      </g>
      <g id="Graphic_35">
        <text transform="translate(429.1593 177.26018)" fill="black">
          <tspan font-family="Helvetica Now Micro" font-size="6" fill="black" x="0" y="7">group</tspan>
        </text>
      </g>
      <g id="Line_38">
        <title>line</title>
        <line x1="381.14" y1="225" x2="495" y2="225" marker-start="url(#UMLInheritance_Marker)" stroke="#666a6b" stroke-linecap="square" stroke-linejoin="bevel" stroke-width="2"/>
      </g>
      <g id="Graphic_37">
        <text transform="translate(422.9703 212.26018)" fill="black">
          <tspan font-family="Helvetica Now Micro" font-size="6" fill="black" x="0" y="7">optimizer</tspan>
        </text>
      </g>
      <g id="Line_41">
        <title>line</title>
        <line x1="127.14" y1="350" x2="270" y2="350" marker-start="url(#UMLInheritance_Marker)" stroke="#666a6b" stroke-linecap="square" stroke-linejoin="bevel" stroke-width="2"/>
      </g>
      <g id="Graphic_40">
        <text transform="translate(160.33863 338.32794)" fill="black">
          <tspan font-family="Helvetica Now Micro" font-size="6" fill="black" x="8171241e-19" y="7">OAuth token, forecast</tspan>
        </text>
      </g>
      <g id="Group_54">
        <title>process</title>
        <g id="Graphic_56">
          <path d="M 270 330 L 270 310 C 270 310 270 300 280 300 C 290 300 360 300 360 300 C 360 300 370 300 370 310 C 370 320 370 330 370 330 Z" fill="#f1f8f8"/>
          <path d="M 270 330 L 270 310 C 270 310 270 300 280 300 C 290 300 360 300 360 300 C 360 300 370 300 370 310 C 370 320 370 330 370 330 Z" stroke="#babfc1" stroke-linecap="round" stroke-linejoin="round" stroke-width="2"/>
          <text transform="translate(275 307.5)" fill="#515556">
            <tspan font-family="Avenir" font-size="11" fill="#515556" x="41.942" y="11">4</tspan>
          </text>
        </g>
        <g id="Graphic_55">
          <path d="M 270 330 L 270 390 C 270 390 270 400 280 400 C 290 400 360 400 360 400 C 360 400 370 400 370 390 C 370 380 370 330 370 330 Z" fill="#f1f8f8"/>
          <path d="M 270 330 L 270 390 C 270 390 270 400 280 400 C 290 400 360 400 360 400 C 360 400 370 400 370 390 C 370 380 370 330 370 330 Z" stroke="#babfc1" stroke-linecap="round" stroke-linejoin="round" stroke-width="2"/>
          <text transform="translate(275 345)" fill="#515556">
            <tspan font-family="Avenir" font-size="13" fill="#515556" x="7.4105" y="13">Authenticate </tspan>
            <tspan font-family="Avenir" font-size="13" fill="#515556" x="29.2245" y="35">client</tspan>
          </text>
        </g>
      </g>
      <g id="Group_51">
        <title>data</title>
        <g id="Graphic_53">
          <title>Attributes</title>
          <rect x="525" y="325" width="140" height="30" fill="#eff9f9"/>
          <rect x="525" y="325" width="140" height="30" stroke="#b9c0c1" stroke-linecap="round" stroke-linejoin="round" stroke-width="2"/>
          <text transform="translate(533 331)" fill="#515556">
            <tspan font-family="Avenir" font-size="13" fill="#515556" x="0" y="13">Identities</tspan>
          </text>
        </g>
        <g id="Graphic_52">
          <path d="M 500 325 C 500 325 495 325 495 330 C 495 335 495 350 495 350 C 495 350 495 355 500 355 C 505 355 525 355 525 355 L 525 325 Z" fill="#f1f8f8"/>
          <path d="M 500 325 C 500 325 495 325 495 330 C 495 335 495 350 495 350 C 495 350 495 355 500 355 C 505 355 525 355 525 355 L 525 325 Z" stroke="#b9bfc1" stroke-linecap="round" stroke-linejoin="round" stroke-width="2"/>
          <text transform="translate(500 332.5)" fill="#515556">
            <tspan font-family="Avenir" font-size="11" fill="#515556" x="6.942" y="11">4</tspan>
          </text>
        </g>
      </g>
      <g id="Line_50">
        <title>line</title>
        <line x1="381.14" y1="340" x2="495" y2="340" marker-start="url(#UMLInheritance_Marker)" stroke="#666a6b" stroke-linecap="square" stroke-linejoin="bevel" stroke-width="2"/>
      </g>
      <g id="Graphic_49">
        <text transform="translate(410.7303 327.26018)" fill="black">
          <tspan font-family="Helvetica Now Micro" font-size="6" fill="black" x="0" y="7">OAuth public key</tspan>
        </text>
      </g>
      <g id="Group_46">
        <title>data</title>
        <g id="Graphic_48">
          <title>Attributes</title>
          <rect x="525" y="365" width="140" height="30" fill="#eff9f9"/>
          <rect x="525" y="365" width="140" height="30" stroke="#b9c0c1" stroke-linecap="round" stroke-linejoin="round" stroke-width="2"/>
          <text transform="translate(533 371)" fill="#515556">
            <tspan font-family="Avenir" font-size="13" fill="#515556" x="0" y="13">OAuth credentials</tspan>
          </text>
        </g>
        <g id="Graphic_47">
          <path d="M 500 365 C 500 365 495 365 495 370 C 495 375 495 390 495 390 C 495 390 495 395 500 395 C 505 395 525 395 525 395 L 525 365 Z" fill="#f1f8f8"/>
          <path d="M 500 365 C 500 365 495 365 495 370 C 495 375 495 390 495 390 C 495 390 495 395 500 395 C 505 395 525 395 525 395 L 525 365 Z" stroke="#b9bfc1" stroke-linecap="round" stroke-linejoin="round" stroke-width="2"/>
          <text transform="translate(500 372.5)" fill="#515556">
            <tspan font-family="Avenir" font-size="11" fill="#515556" x="6.942" y="11">5</tspan>
          </text>
        </g>
      </g>
      <g id="Line_45">
        <title>line</title>
        <line x1="381.1399" y1="379.54456" x2="495" y2="380" marker-start="url(#UMLInheritance_Marker)" stroke="#666a6b" stroke-linecap="square" stroke-linejoin="bevel" stroke-width="2"/>
      </g>
      <g id="Graphic_44">
        <text transform="translate(398.06222 367.0347)" fill="black">
          <tspan font-family="Helvetica Now Micro" font-size="6" fill="black" x="0" y="7">OAuth client credentials</tspan>
        </text>
      </g>
      <g id="Graphic_43">
        <title>entity</title>
        <rect x="15" y="300" width="100" height="100" fill="#f1f8f8"/>
        <rect x="15" y="300" width="100" height="100" stroke="#b9c0c1" stroke-linecap="round" stroke-linejoin="round" stroke-width="2"/>
        <text transform="translate(21 341)" fill="#515556">
          <tspan font-family="Avenir" font-size="13" fill="#515556" x="14.867" y="13">Optimizer</tspan>
        </text>
      </g>
      <g id="Line_58">
        <title>line</title>
        <line x1="320" y1="288.86" x2="320" y2="250" marker-start="url(#UMLInheritance_Marker)" stroke="#666a6b" stroke-linecap="square" stroke-linejoin="bevel" stroke-width="2"/>
      </g>
      <g id="Graphic_57">
        <text transform="translate(325.86165 269.0089)" fill="black">
          <tspan font-family="Helvetica Now Micro" font-size="6" fill="black" x="0" y="7">forecast</tspan>
        </text>
      </g>
    </g>
  </g>
</svg>
